<?xml version="1.0" encoding="UTF-8"?><svg xmlns="http://www.w3.org/2000/svg" xmlns:xlink="http://www.w3.org/1999/xlink" width="768" zoomAndPan="magnify" viewBox="0 0 768 767.999994" height="767.999994" preserveAspectRatio="xMidYMid meet" version="1.0"><path fill="rgb(49.409485%, 85.099792%, 34.118652%)" d="M 567.414062 431.171875 L 595.863281 402.722656 L 652.863281 459.722656 Z M 567.414062 336.828125 L 652.863281 308.277344 L 595.863281 365.277344 Z M 614.585938 384 L 684.671875 313.914062 C 689.84375 308.742188 689.84375 300.363281 684.671875 295.191406 C 680.535156 291.050781 674.378906 290.378906 669.414062 292.863281 C 669.363281 291.570312 669.363281 290.277344 668.949219 288.984375 C 666.621094 282.050781 659.121094 278.277344 652.191406 280.601562 L 546.464844 315.878906 L 432.984375 202.34375 L 644.636719 273 C 646.035156 273.464844 647.429688 273.671875 648.828125 273.671875 C 654.363281 273.671875 659.535156 270.207031 661.398438 264.621094 C 663.671875 257.742188 659.949219 250.242188 653.015625 247.914062 L 441.15625 177.207031 C 434.222656 174.878906 426.722656 178.601562 424.398438 185.585938 C 423.414062 188.484375 423.722656 191.429688 424.707031 194.070312 L 419.84375 189.257812 C 414.671875 184.085938 406.292969 184.085938 401.121094 189.257812 C 395.949219 194.429688 395.949219 202.808594 401.121094 207.984375 L 518.378906 325.242188 L 425.222656 356.328125 C 418.292969 358.65625 414.570312 366.15625 416.84375 373.085938 C 418.707031 378.621094 423.878906 382.136719 429.414062 382.136719 C 430.808594 382.136719 432.257812 381.929688 433.601562 381.464844 L 539.328125 346.191406 L 577.136719 384 L 539.328125 421.808594 L 433.601562 386.535156 C 426.671875 384.207031 419.171875 387.984375 416.84375 394.914062 C 414.570312 401.84375 418.292969 409.34375 425.222656 411.671875 L 518.378906 442.757812 L 401.121094 560.015625 C 395.949219 565.191406 395.949219 573.570312 401.121094 578.742188 C 403.707031 581.328125 407.070312 582.621094 410.484375 582.621094 C 410.535156 582.621094 410.585938 582.570312 410.636719 582.570312 C 410.636719 584.015625 410.691406 585.464844 411.15625 586.863281 C 413.015625 592.398438 418.191406 595.914062 423.722656 595.914062 C 425.121094 595.914062 426.515625 595.707031 427.914062 595.242188 L 666.257812 515.691406 C 673.191406 513.363281 676.914062 505.863281 674.636719 498.929688 C 672.308594 492 664.808594 488.222656 657.878906 490.550781 L 432.929688 565.65625 L 546.464844 452.121094 L 652.191406 487.398438 C 653.535156 487.863281 654.984375 488.070312 656.378906 488.070312 C 661.914062 488.070312 667.085938 484.550781 668.949219 479.015625 C 669.363281 477.722656 669.363281 476.429688 669.414062 475.136719 C 671.277344 476.070312 673.242188 476.691406 675.308594 476.691406 C 678.722656 476.691406 682.085938 475.398438 684.671875 472.808594 C 689.84375 467.636719 689.84375 459.257812 684.671875 454.085938 L 614.585938 384 " fill-opacity="1" fill-rule="nonzero"/><path fill="rgb(49.409485%, 85.099792%, 34.118652%)" d="M 249.621094 230.898438 L 342.777344 199.808594 C 349.707031 197.484375 353.429688 189.984375 351.15625 183.050781 C 348.828125 176.121094 341.328125 172.34375 334.398438 174.671875 L 228.671875 209.949219 L 115.136719 96.414062 L 340.085938 171.515625 C 341.484375 171.984375 342.878906 172.191406 344.277344 172.191406 C 349.808594 172.191406 354.984375 168.671875 356.84375 163.136719 C 359.121094 156.207031 355.398438 148.707031 348.464844 146.378906 L 110.121094 66.828125 C 103.191406 64.5 95.691406 68.277344 93.363281 75.207031 C 92.898438 76.601562 92.84375 78.050781 92.84375 79.5 C 89.378906 79.449219 85.964844 80.691406 83.328125 83.328125 C 78.15625 88.5 78.15625 96.878906 83.328125 102.050781 L 200.585938 219.308594 L 107.429688 250.398438 C 100.5 252.722656 96.777344 260.222656 99.050781 267.15625 C 100.914062 272.691406 106.085938 276.207031 111.621094 276.207031 C 113.015625 276.207031 114.464844 276 115.808594 275.535156 L 221.535156 240.257812 L 335.070312 353.792969 L 110.121094 278.691406 C 103.191406 276.363281 95.691406 280.136719 93.363281 287.070312 C 91.035156 294 94.808594 301.5 101.742188 303.828125 L 340.085938 383.378906 C 341.484375 383.84375 342.878906 384.050781 344.277344 384.050781 C 349.808594 384.050781 354.984375 380.535156 356.84375 375 C 357.308594 373.601562 357.363281 372.15625 357.363281 370.707031 C 357.414062 370.707031 357.464844 370.757812 357.515625 370.757812 C 360.929688 370.757812 364.292969 369.464844 366.878906 366.878906 C 372.050781 361.707031 372.050781 353.328125 366.878906 348.15625 L 249.621094 230.898438 " fill-opacity="1" fill-rule="nonzero"/><path fill="rgb(49.409485%, 85.099792%, 34.118652%)" d="M 340.085938 595.242188 C 340.914062 595.5 341.792969 595.550781 342.621094 595.65625 L 115.136719 671.585938 L 228.671875 558.050781 Z M 366.878906 401.121094 C 364.242188 398.484375 360.777344 397.242188 357.363281 397.292969 C 357.363281 395.84375 357.308594 394.398438 356.84375 393 C 354.515625 386.070312 347.015625 382.292969 340.085938 384.621094 L 101.742188 464.171875 C 94.808594 466.5 91.035156 474 93.363281 480.929688 C 95.222656 486.464844 100.398438 489.984375 105.929688 489.984375 C 107.328125 489.984375 108.722656 489.777344 110.121094 489.308594 L 335.070312 414.207031 L 221.535156 527.742188 L 110.121094 490.550781 C 103.191406 488.222656 95.691406 492 93.363281 498.929688 C 91.035156 505.863281 94.808594 513.363281 101.742188 515.691406 L 200.585938 548.691406 L 83.328125 665.949219 C 78.308594 671.015625 78.257812 679.035156 83.015625 684.257812 C 79.964844 687.671875 78.570312 692.535156 80.121094 697.242188 C 81.984375 702.777344 87.15625 706.242188 92.691406 706.242188 C 94.085938 706.242188 95.484375 706.035156 96.878906 705.570312 L 361.707031 617.171875 C 368.636719 614.84375 372.363281 607.34375 370.085938 600.414062 C 367.757812 593.535156 360.308594 589.757812 353.378906 592.085938 C 354.878906 590.636719 356.121094 588.929688 356.84375 586.863281 C 359.121094 579.929688 355.398438 572.429688 348.464844 570.101562 L 249.621094 537.101562 L 366.878906 419.84375 C 372.050781 414.671875 372.050781 406.292969 366.878906 401.121094 " fill-opacity="1" fill-rule="nonzero"/><path fill="rgb(0%, 50.19989%, 21.569824%)" d="M 132.414062 66.207031 C 132.414062 102.777344 102.777344 132.414062 66.207031 132.414062 C 29.636719 132.414062 0 102.777344 0 66.207031 C 0 29.636719 29.636719 0 66.207031 0 C 102.777344 0 132.414062 29.636719 132.414062 66.207031 " fill-opacity="1" fill-rule="nonzero"/><path fill="rgb(0%, 50.19989%, 21.569824%)" d="M 132.414062 489.929688 C 132.414062 526.5 102.777344 556.136719 66.207031 556.136719 C 29.636719 556.136719 0 526.5 0 489.929688 C 0 453.363281 29.636719 423.722656 66.207031 423.722656 C 102.777344 423.722656 132.414062 453.363281 132.414062 489.929688 " fill-opacity="1" fill-rule="nonzero"/><path fill="rgb(0%, 50.19989%, 21.569824%)" d="M 132.414062 278.070312 C 132.414062 314.636719 102.777344 344.277344 66.207031 344.277344 C 29.636719 344.277344 0 314.636719 0 278.070312 C 0 241.5 29.636719 211.863281 66.207031 211.863281 C 102.777344 211.863281 132.414062 241.5 132.414062 278.070312 " fill-opacity="1" fill-rule="nonzero"/><path fill="rgb(0%, 50.19989%, 21.569824%)" d="M 132.414062 701.792969 C 132.414062 738.363281 102.777344 768 66.207031 768 C 29.636719 768 0 738.363281 0 701.792969 C 0 665.222656 29.636719 635.585938 66.207031 635.585938 C 102.777344 635.585938 132.414062 665.222656 132.414062 701.792969 " fill-opacity="1" fill-rule="nonzero"/><path fill="rgb(0%, 50.19989%, 21.569824%)" d="M 450.207031 384 C 450.207031 420.570312 420.570312 450.207031 384 450.207031 C 347.429688 450.207031 317.792969 420.570312 317.792969 384 C 317.792969 347.429688 347.429688 317.792969 384 317.792969 C 420.570312 317.792969 450.207031 347.429688 450.207031 384 " fill-opacity="1" fill-rule="nonzero"/><path fill="rgb(0%, 50.19989%, 21.569824%)" d="M 450.207031 172.136719 C 450.207031 208.707031 420.570312 238.34375 384 238.34375 C 347.429688 238.34375 317.792969 208.707031 317.792969 172.136719 C 317.792969 135.570312 347.429688 105.929688 384 105.929688 C 420.570312 105.929688 450.207031 135.570312 450.207031 172.136719 " fill-opacity="1" fill-rule="nonzero"/><path fill="rgb(0%, 50.19989%, 21.569824%)" d="M 450.207031 595.863281 C 450.207031 632.429688 420.570312 662.070312 384 662.070312 C 347.429688 662.070312 317.792969 632.429688 317.792969 595.863281 C 317.792969 559.292969 347.429688 529.65625 384 529.65625 C 420.570312 529.65625 450.207031 559.292969 450.207031 595.863281 " fill-opacity="1" fill-rule="nonzero"/><path fill="rgb(0%, 50.19989%, 21.569824%)" d="M 768 278.070312 C 768 314.636719 738.363281 344.277344 701.792969 344.277344 C 665.222656 344.277344 635.585938 314.636719 635.585938 278.070312 C 635.585938 241.5 665.222656 211.863281 701.792969 211.863281 C 738.363281 211.863281 768 241.5 768 278.070312 " fill-opacity="1" fill-rule="nonzero"/><path fill="rgb(0%, 50.19989%, 21.569824%)" d="M 768 489.929688 C 768 526.5 738.363281 556.136719 701.792969 556.136719 C 665.222656 556.136719 635.585938 526.5 635.585938 489.929688 C 635.585938 453.363281 665.222656 423.722656 701.792969 423.722656 C 738.363281 423.722656 768 453.363281 768 489.929688 " fill-opacity="1" fill-rule="nonzero"/><path fill="rgb(0%, 50.19989%, 21.569824%)" d="M 52.964844 79.449219 C 45.671875 79.449219 39.722656 73.5 39.722656 66.207031 C 39.722656 51.621094 51.621094 39.722656 66.207031 39.722656 C 73.5 39.722656 79.449219 45.671875 79.449219 52.964844 C 79.449219 60.257812 73.5 66.207031 66.207031 66.207031 C 66.207031 73.5 60.257812 79.449219 52.964844 79.449219 " fill-opacity="1" fill-rule="nonzero"/><path fill="rgb(0%, 50.19989%, 21.569824%)" d="M 52.964844 503.171875 C 45.671875 503.171875 39.722656 497.222656 39.722656 489.929688 C 39.722656 475.34375 51.621094 463.449219 66.207031 463.449219 C 73.5 463.449219 79.449219 469.398438 79.449219 476.691406 C 79.449219 483.984375 73.5 489.929688 66.207031 489.929688 C 66.207031 497.222656 60.257812 503.171875 52.964844 503.171875 " fill-opacity="1" fill-rule="nonzero"/><path fill="rgb(0%, 50.19989%, 21.569824%)" d="M 52.964844 291.308594 C 45.671875 291.308594 39.722656 285.363281 39.722656 278.070312 C 39.722656 263.484375 51.621094 251.585938 66.207031 251.585938 C 73.5 251.585938 79.449219 257.535156 79.449219 264.828125 C 79.449219 272.121094 73.5 278.070312 66.207031 278.070312 C 66.207031 285.363281 60.257812 291.308594 52.964844 291.308594 " fill-opacity="1" fill-rule="nonzero"/><path fill="rgb(0%, 50.19989%, 21.569824%)" d="M 52.964844 715.035156 C 45.671875 715.035156 39.722656 709.085938 39.722656 701.792969 C 39.722656 687.207031 51.621094 675.308594 66.207031 675.308594 C 73.5 675.308594 79.449219 681.257812 79.449219 688.550781 C 79.449219 695.84375 73.5 701.792969 66.207031 701.792969 C 66.207031 709.085938 60.257812 715.035156 52.964844 715.035156 " fill-opacity="1" fill-rule="nonzero"/><path fill="rgb(0%, 50.19989%, 21.569824%)" d="M 370.757812 397.242188 C 363.464844 397.242188 357.515625 391.292969 357.515625 384 C 357.515625 369.414062 369.414062 357.515625 384 357.515625 C 391.292969 357.515625 397.242188 363.464844 397.242188 370.757812 C 397.242188 378.050781 391.292969 384 384 384 C 384 391.292969 378.050781 397.242188 370.757812 397.242188 " fill-opacity="1" fill-rule="nonzero"/><path fill="rgb(0%, 50.19989%, 21.569824%)" d="M 370.757812 185.378906 C 363.464844 185.378906 357.515625 179.429688 357.515625 172.136719 C 357.515625 157.550781 369.414062 145.65625 384 145.65625 C 391.292969 145.65625 397.242188 151.601562 397.242188 158.898438 C 397.242188 166.191406 391.292969 172.136719 384 172.136719 C 384 179.429688 378.050781 185.378906 370.757812 185.378906 " fill-opacity="1" fill-rule="nonzero"/><path fill="rgb(0%, 50.19989%, 21.569824%)" d="M 370.757812 609.101562 C 363.464844 609.101562 357.515625 603.15625 357.515625 595.863281 C 357.515625 581.277344 369.414062 569.378906 384 569.378906 C 391.292969 569.378906 397.242188 575.328125 397.242188 582.621094 C 397.242188 589.914062 391.292969 595.863281 384 595.863281 C 384 603.15625 378.050781 609.101562 370.757812 609.101562 " fill-opacity="1" fill-rule="nonzero"/><path fill="rgb(0%, 50.19989%, 21.569824%)" d="M 688.550781 291.308594 C 681.257812 291.308594 675.308594 285.363281 675.308594 278.070312 C 675.308594 263.484375 687.207031 251.585938 701.792969 251.585938 C 709.085938 251.585938 715.035156 257.535156 715.035156 264.828125 C 715.035156 272.121094 709.085938 278.070312 701.792969 278.070312 C 701.792969 285.363281 695.84375 291.308594 688.550781 291.308594 " fill-opacity="1" fill-rule="nonzero"/><path fill="rgb(0%, 50.19989%, 21.569824%)" d="M 688.550781 503.171875 C 681.257812 503.171875 675.308594 497.222656 675.308594 489.929688 C 675.308594 475.34375 687.207031 463.449219 701.792969 463.449219 C 709.085938 463.449219 715.035156 469.398438 715.035156 476.691406 C 715.035156 483.984375 709.085938 489.929688 701.792969 489.929688 C 701.792969 497.222656 695.84375 503.171875 688.550781 503.171875 " fill-opacity="1" fill-rule="nonzero"/></svg>