<?xml version="1.0" encoding="UTF-8"?>
<svg xmlns="http://www.w3.org/2000/svg" xmlns:xlink="http://www.w3.org/1999/xlink" viewBox="0 0 24 24" width="24px" height="24px">
<g id="surface60225124">
<path style=" stroke:none;fill-rule:nonzero;fill:rgb(50.196081%,50.196081%,50.196081%);fill-opacity:1;" d="M 12 4 C 12 4 5.746094 4 4.1875 4.417969 C 3.324219 4.648438 2.648438 5.324219 2.417969 6.183594 C 2 7.746094 2 12 2 12 C 2 12 2 16.253906 2.417969 17.816406 C 2.648438 18.675781 3.324219 19.351562 4.1875 19.582031 C 5.746094 20 12 20 12 20 C 12 20 18.253906 20 19.8125 19.582031 C 20.675781 19.351562 21.351562 18.675781 21.582031 17.816406 C 22 16.253906 22 12 22 12 C 22 12 22 7.746094 21.582031 6.183594 C 21.351562 5.324219 20.675781 4.648438 19.8125 4.417969 C 18.253906 4 12 4 12 4 Z M 12 6 C 14.882812 6 18.492188 6.132812 19.296875 6.347656 C 19.464844 6.394531 19.605469 6.53125 19.652344 6.703125 C 19.890625 7.601562 20 10.34375 20 12 C 20 13.65625 19.890625 16.398438 19.652344 17.296875 C 19.605469 17.464844 19.46875 17.605469 19.296875 17.652344 C 18.492188 17.867188 14.882812 18 12 18 C 9.117188 18 5.511719 17.867188 4.703125 17.652344 C 4.535156 17.605469 4.394531 17.46875 4.347656 17.296875 C 4.109375 16.398438 4 13.65625 4 12 C 4 10.34375 4.109375 7.601562 4.347656 6.703125 C 4.394531 6.53125 4.53125 6.394531 4.703125 6.351562 C 5.507812 6.132812 9.117188 6 12 6 Z M 10 8.535156 L 10 15.464844 L 16 12 Z M 10 8.535156 "/>
</g>
</svg>
