<?xml version="1.0" encoding="UTF-8"?>
<svg xmlns="http://www.w3.org/2000/svg" xmlns:xlink="http://www.w3.org/1999/xlink" viewBox="0 0 24 24" width="24px" height="24px">
<g id="surface27731254">
<path style=" stroke:none;fill-rule:nonzero;fill:rgb(30.980393%,30.980393%,30.980393%);fill-opacity:1;" d="M 5 3 C 3.894531 3 3 3.894531 3 5 L 3 19 C 3 20.105469 3.894531 21 5 21 L 19 21 C 20.105469 21 21 20.105469 21 19 L 21 5 C 21 3.894531 20.105469 3 19 3 Z M 5 5 L 19 5 L 19 19 L 5 19 Z M 7.78125 6.316406 C 6.921875 6.316406 6.410156 6.832031 6.410156 7.519531 C 6.410156 8.203125 6.921875 8.71875 7.695312 8.71875 C 8.550781 8.71875 9.066406 8.203125 9.066406 7.519531 C 9.066406 6.832031 8.550781 6.316406 7.78125 6.316406 Z M 6.476562 10 L 6.476562 17 L 9 17 L 9 10 Z M 11.082031 10 L 11.082031 17 L 13.605469 17 L 13.605469 13.175781 C 13.605469 12.035156 14.417969 11.871094 14.660156 11.871094 C 14.90625 11.871094 15.558594 12.117188 15.558594 13.175781 L 15.558594 17 L 18 17 L 18 13.175781 C 18 10.976562 17.023438 10 15.804688 10 C 14.582031 10 13.929688 10.40625 13.605469 10.976562 L 13.605469 10 Z M 11.082031 10 "/>
</g>
</svg>
