<svg fill="#000000" xmlns="http://www.w3.org/2000/svg"  viewBox="0 0 50 50" width="50px" height="50px"><path d="M 13 4 C 8.038 4 4 8.037 4 13 L 4 37 C 4 41.963 8.038 46 13 46 L 37 46 C 41.962 46 46 41.963 46 37 L 46 13 C 46 8.037 41.962 4 37 4 L 13 4 z M 13 6 L 37 6 C 40.86 6 44 9.141 44 13 L 44 37 C 44 40.859 40.86 44 37 44 L 13 44 C 9.14 44 6 40.859 6 37 L 6 13 C 6 9.141 9.14 6 13 6 z M 40.494141 16.304688 C 40.314984 16.303 40.166078 16.387844 40.017578 16.527344 C 39.767578 16.762344 39.679422 16.904281 39.482422 17.238281 C 39.388422 17.398281 39.072141 17.990297 38.994141 18.154297 C 38.917141 18.316297 38.853578 18.464594 38.767578 18.683594 C 38.610578 19.084594 38.380859 19.726562 38.380859 19.726562 C 38.380859 19.726562 38.323062 19.606813 38.289062 19.507812 C 38.277062 19.472812 38.245094 19.187047 38.246094 19.123047 C 38.253094 18.716047 38.256047 18.533594 38.373047 18.058594 C 38.478047 17.633594 38.656609 17.106344 38.599609 16.652344 C 38.582609 16.515344 38.513953 16.365484 38.376953 16.396484 C 38.239953 16.428484 38.045625 16.869453 38.015625 16.939453 C 37.624625 17.856453 37.349141 18.938 37.619141 19.875 C 37.704141 20.17 37.888188 20.514344 38.117188 20.777344 C 38.131188 20.793344 38.132859 20.796359 38.130859 20.818359 C 38.016859 22.145359 38.002594 22.72175 38.183594 23.96875 C 38.235594 24.32675 38.346781 24.928875 38.675781 25.171875 C 38.841781 25.293875 39.006453 25.337953 39.189453 25.376953 C 39.330453 25.405953 39.377937 25.415172 39.460938 25.326172 C 39.495937 25.288172 39.503719 25.273328 39.511719 25.236328 C 39.516719 25.206328 39.432578 23.989344 39.392578 23.527344 C 39.365578 23.214344 39.339562 22.193594 39.351562 21.808594 C 39.356563 21.586594 39.371094 21.300781 39.371094 21.300781 C 39.371094 21.300781 39.460156 21.280672 39.535156 21.263672 C 40.091156 21.118672 40.591469 20.741109 40.980469 20.287109 C 41.361469 19.842109 41.604797 19.388219 41.716797 18.824219 C 41.811797 18.351219 41.752406 17.7815 41.566406 17.3125 C 41.409406 16.9215 41.111547 16.470891 40.685547 16.337891 C 40.618047 16.316891 40.553859 16.30525 40.494141 16.304688 z M 23.179688 16.322266 C 22.696687 16.297266 22.142016 16.578328 21.791016 16.861328 C 21.418016 17.161328 21.105438 17.5375 20.898438 17.9375 C 20.693438 18.3355 20.579562 18.796703 20.726562 19.220703 C 20.773562 19.355703 20.891094 19.55325 20.996094 19.65625 C 21.084094 19.74425 21.22625 19.823781 21.28125 19.925781 C 21.31425 19.986781 21.324609 20.074391 21.349609 20.150391 C 21.405609 20.323391 21.533219 20.482547 21.699219 20.560547 C 21.817219 20.616547 21.899563 20.590234 21.976562 20.490234 C 21.997563 20.463234 22.026109 20.401422 22.037109 20.357422 C 22.058109 20.274422 22.072609 20.163328 22.099609 20.111328 C 22.103609 20.104328 22.134156 20.111094 22.160156 20.121094 C 22.181156 20.128094 22.353438 20.125234 22.398438 20.115234 C 22.486438 20.097234 22.584781 20.094172 22.675781 20.076172 C 22.969781 20.020172 23.335594 19.816484 23.558594 19.646484 C 24.067594 19.258484 24.417375 18.811563 24.734375 18.226562 C 24.919375 17.886563 25.023219 17.383766 24.824219 17.009766 C 24.725219 16.823766 24.594672 16.714141 24.388672 16.619141 C 24.285672 16.571141 24.05325 16.524062 23.90625 16.539062 C 23.86225 16.543063 23.810109 16.552875 23.787109 16.546875 C 23.761109 16.539875 23.736031 16.515141 23.707031 16.494141 C 23.571031 16.396141 23.336687 16.330266 23.179688 16.322266 z M 36.005859 16.935547 C 35.920719 16.937344 35.831078 16.950359 35.736328 16.974609 C 35.488328 17.038609 34.740125 17.348969 34.578125 17.417969 C 34.390125 17.496969 34.206719 17.578016 34.011719 17.666016 C 33.854719 17.736016 33.366641 17.981484 33.306641 18.021484 C 33.143641 18.127484 33.114047 18.238766 33.248047 18.384766 C 33.363047 18.508766 33.506594 18.552406 33.683594 18.566406 C 33.840594 18.579406 34.125 18.564453 34.125 18.564453 C 34.125 18.564453 34.103797 18.869359 34.091797 19.068359 C 34.082797 19.210359 34.075094 19.386641 33.996094 19.431641 C 33.984094 19.438641 33.969172 19.442219 33.951172 19.449219 C 33.746172 19.531219 33.655031 19.68375 33.707031 19.84375 C 33.741031 19.94875 33.916781 20.256641 33.925781 20.306641 C 33.927781 20.327641 33.927781 20.348141 33.925781 20.369141 C 33.894781 20.766141 33.848094 20.790406 33.871094 21.066406 C 33.896094 21.360406 33.968531 21.617609 34.144531 21.849609 C 34.168531 21.881609 34.191656 21.909266 34.222656 21.947266 C 34.259656 21.991266 34.419734 22.127813 34.427734 22.132812 C 34.480734 22.164813 34.533844 22.19275 34.589844 22.21875 C 34.623844 22.23275 34.722703 22.263625 34.720703 22.265625 C 34.721703 22.273625 34.895406 22.301781 34.941406 22.300781 C 35.179406 22.295781 35.248187 22.305078 35.492188 22.205078 C 36.021188 21.988078 36.651328 21.422609 36.986328 20.974609 C 37.093328 20.832609 37.175906 20.703547 37.128906 20.560547 C 37.077906 20.409547 36.995375 20.31675 36.859375 20.21875 C 36.703375 20.10675 36.597672 20.153 36.388672 20.25 C 36.000672 20.43 35.527891 20.645781 35.212891 20.800781 C 35.154891 20.829781 35.080906 20.860813 35.003906 20.882812 C 34.957906 20.895813 34.902344 20.908203 34.902344 20.908203 C 34.902344 20.908203 34.89825 20.6735 34.90625 20.4375 C 34.91425 20.2115 34.933594 19.984375 34.933594 19.984375 C 34.933594 19.984375 35.026234 19.941297 35.115234 19.904297 C 35.258234 19.844297 36.346453 19.526422 36.439453 19.482422 C 36.618453 19.397422 36.632687 19.277922 36.554688 19.044922 C 36.489688 18.845922 36.386406 18.723375 36.191406 18.734375 C 36.140406 18.737375 36.053797 18.758203 35.966797 18.783203 C 35.610797 18.886203 34.976563 19.074219 34.976562 19.074219 L 34.984375 18.423828 C 34.984375 18.423828 35.343562 18.325047 35.601562 18.248047 C 35.763562 18.199047 36.645094 17.933453 36.871094 17.689453 C 37.018094 17.530453 36.878891 17.352797 36.712891 17.216797 C 36.480391 17.026297 36.261281 16.930156 36.005859 16.935547 z M 23.996094 17.154297 C 24.126094 17.169297 24.238063 17.253047 24.289062 17.373047 C 24.456063 17.769047 24.084453 18.253438 23.814453 18.523438 C 23.543453 18.798437 23.215516 19.007672 22.853516 19.138672 C 22.709516 19.190672 22.322781 19.306578 22.300781 19.267578 C 22.294781 19.258578 22.309078 19.214063 22.330078 19.164062 C 22.364078 19.084063 22.401359 18.967281 22.443359 18.863281 C 22.620359 18.418281 23.011359 17.815094 23.318359 17.496094 C 23.422359 17.388094 23.475656 17.348484 23.597656 17.271484 C 23.764656 17.165484 23.834094 17.133297 23.996094 17.154297 z M 40.691406 17.179688 C 40.719906 17.177437 40.748578 17.185719 40.767578 17.199219 C 40.953578 17.339219 41.045734 17.746172 41.052734 17.951172 C 41.065734 18.403172 40.941453 18.828594 40.689453 19.183594 C 40.523453 19.415594 40.180437 19.739047 39.898438 19.873047 C 39.765437 19.936047 39.631188 19.980797 39.617188 19.966797 C 39.610188 19.959797 39.678078 19.687375 39.705078 19.609375 C 39.828078 19.256375 39.938219 18.816875 40.074219 18.421875 C 40.176219 18.123875 40.401234 17.540609 40.615234 17.224609 C 40.635234 17.195109 40.662906 17.181938 40.691406 17.179688 z M 22.25 17.517578 C 22.25 17.517578 22.179141 17.620938 22.119141 17.710938 C 21.924141 18.005938 21.681406 18.459484 21.566406 18.771484 C 21.502406 18.943484 21.433594 19.164062 21.433594 19.164062 C 21.433594 19.164062 21.389328 19.118078 21.361328 19.080078 C 21.159328 18.821078 21.324906 18.416484 21.503906 18.146484 C 21.611906 17.982484 21.844297 17.710234 22.029297 17.615234 C 22.107297 17.575234 22.25 17.517578 22.25 17.517578 z M 31.019531 17.775391 C 30.843531 17.764391 30.770453 17.876297 30.814453 18.029297 C 30.844453 18.134297 30.900984 18.238797 30.958984 18.341797 C 31.139984 18.658797 31.357781 18.994312 31.550781 19.320312 C 31.723781 19.611313 31.961609 20.046234 32.099609 20.365234 C 32.146609 20.475234 32.185234 20.579078 32.240234 20.705078 C 32.274234 20.785078 32.408297 21.195937 32.404297 21.210938 C 32.396297 21.243938 32.359547 21.253422 32.310547 21.232422 C 32.273547 21.216422 32.235266 21.184344 32.197266 21.152344 C 31.880266 20.887344 31.551937 20.590828 31.210938 20.298828 C 30.851938 19.991828 30.486187 19.691484 30.117188 19.396484 C 29.984188 19.290484 29.827297 19.196469 29.654297 19.230469 C 29.402297 19.279469 29.392953 19.669156 29.376953 19.910156 C 29.321953 20.755156 29.433797 21.954766 29.716797 22.759766 C 29.803797 23.006766 30.016422 23.483812 30.357422 23.507812 C 30.490422 23.517813 30.57025 23.515359 30.65625 23.443359 C 30.77825 23.339359 30.778484 23.204969 30.771484 23.042969 C 30.760484 22.795969 30.634937 22.320953 30.585938 22.126953 C 30.577938 22.095953 30.278953 20.945453 30.251953 20.689453 C 30.247953 20.653453 30.242531 20.599609 30.269531 20.599609 C 30.299531 20.600609 30.327609 20.612812 30.349609 20.632812 C 30.441609 20.707812 31.106563 21.42325 31.476562 21.78125 C 31.584563 21.88525 32.219531 22.498312 32.519531 22.570312 C 32.794531 22.636312 33.102516 22.412078 33.228516 22.205078 C 33.309516 22.072078 33.382297 21.835969 33.404297 21.667969 C 33.462297 21.211969 33.318062 20.602219 33.164062 20.199219 C 33.015062 19.807219 32.819078 19.432891 32.580078 19.087891 C 32.509078 18.984891 32.229016 18.626594 32.166016 18.558594 C 31.977016 18.356594 31.364531 17.795391 31.019531 17.775391 z M 13.544922 18.542969 C 12.344922 18.524969 11.209031 18.634906 10.082031 19.003906 C 9.5840313 19.165906 8.9402187 19.461766 8.4492188 19.759766 C 8.1032187 19.970766 7.8926875 20.204313 7.8046875 20.570312 C 7.7596875 20.753312 7.7272656 20.947422 7.8222656 21.107422 C 7.9032656 21.243422 8.1276875 21.233891 8.3046875 21.212891 C 8.4746875 21.192891 8.8510625 21.105984 8.9140625 20.958984 C 8.9410625 20.894984 8.9240937 20.848875 8.8710938 20.796875 C 8.8140937 20.740875 8.7072812 20.719516 8.6132812 20.728516 C 8.5072813 20.738516 8.3107656 20.782391 8.2597656 20.775391 C 8.2307656 20.771391 8.1992187 20.763672 8.1992188 20.763672 C 8.1992188 20.763672 8.2087969 20.750234 8.2167969 20.740234 C 8.2317969 20.718234 8.2939375 20.667531 8.3359375 20.644531 C 8.3909375 20.614531 8.4459063 20.576016 8.5039062 20.541016 C 8.9029062 20.298016 9.7553437 20.031594 10.152344 19.933594 C 11.695344 19.553594 13.215266 19.486062 14.822266 19.664062 C 16.398266 19.837062 18.2845 20.365875 19.5625 21.296875 C 20.0465 21.649875 20.7035 22.266906 20.9375 22.878906 C 21.1515 23.438906 21.125672 24.042922 20.888672 24.544922 C 20.709672 24.924922 20.423797 25.249062 20.091797 25.539062 C 19.335797 26.201062 18.296937 26.589891 17.335938 26.837891 C 17.209937 26.870891 16.725375 26.964516 16.609375 26.978516 C 16.407375 27.002516 16.148438 27.025391 16.148438 27.025391 L 15.240234 24.103516 C 15.240234 24.103516 15.538953 24.027469 15.751953 23.980469 C 16.295953 23.858469 17.453313 23.725156 18.070312 23.785156 C 18.201313 23.798156 18.345625 23.835219 18.390625 23.949219 C 18.423625 24.037219 18.373453 24.133562 18.314453 24.226562 C 18.287453 24.270563 18.255844 24.309609 18.214844 24.349609 C 18.133844 24.427609 17.997234 24.558172 17.990234 24.576172 C 17.971234 24.625172 17.985109 24.682125 18.037109 24.703125 C 18.167109 24.756125 18.525234 24.703875 18.615234 24.671875 C 18.919234 24.566875 19.164141 24.269359 19.244141 23.943359 C 19.315141 23.652359 19.274563 23.457031 19.101562 23.207031 C 18.913563 22.935031 18.518719 22.740969 18.136719 22.667969 C 17.672719 22.577969 16.921969 22.627828 16.542969 22.673828 C 16.245969 22.709828 15.932203 22.751266 15.658203 22.822266 C 15.375203 22.895266 14.921875 23.039063 14.921875 23.039062 C 14.921875 23.039062 14.797125 22.642812 14.703125 22.382812 C 14.549125 21.954812 14.180891 21.133953 13.712891 21.001953 C 13.627891 20.977953 13.536859 20.998078 13.505859 21.080078 C 13.457859 21.203078 13.492906 21.608891 13.503906 21.712891 C 13.524906 21.905891 13.673844 22.803547 13.714844 22.935547 C 13.756844 23.068547 13.84875 23.440125 13.84375 23.453125 C 13.84175 23.460125 13.837031 23.466656 13.832031 23.472656 C 13.819031 23.487656 13.578875 23.605781 13.421875 23.675781 C 13.088875 23.824781 12.332656 24.33625 12.097656 24.53125 C 11.777656 24.79625 11.32425 25.227578 11.28125 25.642578 C 11.25125 25.939578 11.355313 26.152281 11.570312 26.363281 C 11.845313 26.633281 12.157094 26.817188 12.496094 26.992188 C 12.618094 27.055187 13.153391 27.291891 13.275391 27.337891 C 13.738391 27.509891 14.213219 27.641469 14.699219 27.730469 C 14.861219 27.760469 15.054688 27.792969 15.054688 27.792969 C 15.054688 27.792969 15.186391 28.122547 15.275391 28.310547 C 15.385391 28.542547 15.52625 28.730719 15.78125 28.761719 C 15.93625 28.780719 16.094328 28.726297 16.236328 28.654297 C 16.353328 28.595297 16.422359 28.516531 16.443359 28.394531 C 16.451359 28.347531 16.451359 28.215969 16.443359 28.167969 C 16.425359 28.061969 16.382812 27.914063 16.382812 27.914062 C 16.598813 27.903063 16.81525 27.888141 17.03125 27.869141 C 17.78525 27.796141 18.56675 27.5875 19.21875 27.3125 C 20.17975 26.9075 21.232875 26.206703 21.796875 25.345703 C 21.948875 25.114703 22.169281 24.611453 22.238281 24.314453 C 22.282281 24.132453 22.316797 23.949672 22.341797 23.763672 C 22.347797 23.723672 22.360797 23.393812 22.341797 23.257812 C 22.335797 23.198812 22.270687 22.75125 22.179688 22.53125 C 22.156688 22.43525 22.031672 22.201203 22.013672 22.158203 C 22.008672 22.154203 21.945344 22.041844 21.902344 21.964844 C 21.859344 21.887844 21.660141 21.63375 21.619141 21.59375 C 21.499141 21.47575 21.416312 21.369625 21.320312 21.265625 C 20.919313 20.831625 20.211922 20.342875 19.669922 20.046875 C 19.362922 19.880875 19.048516 19.727891 18.728516 19.587891 C 18.592516 19.528891 17.732891 19.212969 17.587891 19.167969 C 17.130891 19.025969 16.334844 18.837906 15.839844 18.753906 C 15.150844 18.635906 14.230922 18.552969 13.544922 18.542969 z M 27.826172 19.482422 C 27.195141 19.5135 26.491891 19.731687 26.025391 19.929688 C 25.381391 20.203688 24.548219 20.666266 24.324219 21.322266 C 24.239219 21.572266 24.245672 21.916203 24.388672 22.158203 C 24.467672 22.292203 24.633297 22.387203 24.779297 22.408203 C 24.925297 22.429203 25.095953 22.413578 25.251953 22.392578 C 25.402953 22.371578 26.019109 22.248875 26.412109 22.171875 C 26.787109 22.098875 27.520172 21.970484 27.951172 22.021484 C 27.986172 22.025484 28.173516 22.049891 28.228516 22.087891 C 28.253516 22.105891 28.284828 22.136719 28.298828 22.136719 C 28.303828 22.136719 28.309453 22.132812 28.314453 22.132812 C 28.353453 22.134812 28.40225 22.237953 28.40625 22.251953 C 28.43525 22.354953 28.383313 22.457156 28.320312 22.535156 C 27.866312 23.102156 27.114063 23.439906 26.414062 23.628906 C 26.177063 23.692906 25.972125 23.712734 25.703125 23.677734 C 25.587125 23.662734 25.423156 23.594609 25.410156 23.474609 C 25.385156 23.243609 25.613266 23.117125 25.822266 23.078125 C 25.939266 23.057125 26.100609 23.062219 26.224609 23.074219 C 26.721609 23.121219 26.969703 23.211062 27.345703 23.039062 C 27.484703 22.975062 27.962703 22.719234 27.970703 22.490234 C 27.972703 22.434234 27.930812 22.386375 27.882812 22.359375 C 27.812812 22.320375 27.472859 22.288203 27.380859 22.283203 C 27.050859 22.262203 26.456719 22.32725 26.136719 22.40625 C 25.718719 22.51025 25.191156 22.744969 25.035156 23.167969 C 24.937156 23.433969 25.01975 23.735687 25.21875 23.929688 C 25.48875 24.193687 25.915047 24.336531 26.248047 24.394531 C 26.810047 24.492531 27.435797 24.434797 27.966797 24.216797 C 28.270797 24.091797 28.526625 23.950328 28.765625 23.736328 C 28.995625 23.530328 29.217578 23.204906 29.267578 22.878906 C 29.334578 22.440906 29.173094 21.932047 28.871094 21.623047 C 28.672094 21.420047 28.49275 21.325109 28.21875 21.287109 C 27.92275 21.246109 27.561219 21.279031 27.199219 21.332031 C 27.177219 21.335031 27.173344 21.335844 27.152344 21.339844 L 25.490234 21.607422 C 25.468234 21.611422 25.463406 21.611281 25.441406 21.613281 C 25.366406 21.618281 25.031375 21.678484 25.109375 21.521484 C 25.132375 21.477484 25.222391 21.422625 25.275391 21.390625 C 25.946391 20.984625 26.876906 20.742469 27.628906 20.480469 C 27.796906 20.421469 28.178609 20.285828 28.349609 20.173828 C 28.512609 20.066828 28.623422 19.897453 28.607422 19.689453 C 28.598422 19.580453 28.534875 19.545484 28.421875 19.521484 C 28.239375 19.482734 28.036516 19.472062 27.826172 19.482422 z M 22.865234 20.845703 C 22.732234 20.857703 22.708219 21.050484 22.699219 21.146484 C 22.673219 21.429484 22.775547 22.057953 22.810547 22.251953 C 22.917547 22.840953 23.261547 24.212953 23.560547 24.876953 C 23.685547 25.154953 23.834484 25.316969 24.146484 25.292969 C 24.273484 25.282969 24.488406 25.215906 24.566406 25.128906 C 24.634406 25.051906 24.664203 24.933797 24.658203 24.841797 C 24.643203 24.585797 24.524453 24.249094 24.439453 23.996094 C 24.339453 23.696094 24.244578 23.393797 24.142578 23.091797 C 24.005578 22.687797 23.655297 21.657797 23.404297 21.216797 C 23.296297 21.027797 23.1605 20.866656 22.9375 20.847656 C 22.9135 20.844656 22.889234 20.843703 22.865234 20.845703 z M 37.046875 22.619141 C 36.985906 22.611797 36.917906 22.616922 36.847656 22.638672 L 36.064453 22.882812 C 35.895453 22.935813 35.753875 23.064656 35.671875 23.222656 C 35.581875 23.395656 35.611906 23.714297 35.628906 23.904297 L 35.810547 26.023438 C 35.826547 26.213438 35.766781 26.232453 35.675781 26.064453 L 34.509766 23.902344 C 34.373766 23.650344 34.035906 23.517469 33.753906 23.605469 L 33.445312 23.701172 C 33.163313 23.788172 32.956422 24.091953 32.982422 24.376953 L 33.207031 26.841797 C 33.225031 27.031797 33.165219 27.050813 33.074219 26.882812 L 31.892578 24.716797 C 31.755578 24.465797 31.415766 24.331922 31.134766 24.419922 L 30.357422 24.662109 C 30.075422 24.750109 29.944453 24.963672 30.064453 25.138672 L 32.902344 29.302734 C 33.063344 29.539734 33.422125 29.660266 33.703125 29.572266 L 34.328125 29.378906 C 34.516125 29.320906 34.653719 29.117734 34.636719 28.927734 L 34.414062 26.46875 C 34.397062 26.27875 34.454969 26.260688 34.542969 26.429688 L 35.679688 28.601562 C 35.768687 28.770563 35.991688 28.861734 36.179688 28.802734 L 36.841797 28.595703 C 37.123797 28.507703 37.353516 28.204969 37.353516 27.917969 L 37.357422 23 C 37.358172 22.78475 37.229781 22.641172 37.046875 22.619141 z M 14.099609 24.476562 C 14.099609 24.476562 14.215844 24.915469 14.339844 25.355469 C 14.575844 26.189469 14.841797 27.029297 14.841797 27.029297 C 14.841797 27.029297 14.5145 27.007375 14.3125 26.984375 C 13.7245 26.916375 12.882266 26.670516 12.447266 26.478516 C 12.343266 26.432516 11.963578 26.230594 11.892578 26.183594 C 11.771578 26.103594 11.659531 26.024719 11.644531 25.886719 C 11.629531 25.752719 11.851891 25.575094 11.962891 25.496094 C 12.332891 25.229094 13.013812 24.901953 13.382812 24.751953 C 13.673813 24.634953 14.099609 24.476563 14.099609 24.476562 z M 27.886719 25.523438 C 27.684654 25.543236 27.480797 25.582906 27.279297 25.644531 C 25.667297 26.137531 24.765625 27.823156 25.265625 29.410156 C 25.765625 30.997156 27.479797 31.886531 29.091797 31.394531 C 30.703797 30.901531 31.605469 29.214953 31.105469 27.626953 C 30.667094 26.237453 29.30117 25.384846 27.886719 25.523438 z M 23.671875 26.914062 C 23.598875 26.909172 23.522516 26.918406 23.447266 26.941406 L 22.634766 27.189453 C 22.396766 27.262453 22.237609 27.461781 22.224609 27.675781 C 22.218609 27.770781 22.269828 27.917812 22.298828 28.007812 L 22.935547 30.011719 C 22.964547 30.102719 22.930422 30.123594 22.857422 30.058594 L 20.806641 28.220703 C 20.589641 28.025703 20.170141 27.941203 19.869141 28.033203 L 19.046875 28.283203 C 18.745875 28.375203 18.57125 28.670406 18.65625 28.941406 L 20.044922 33.345703 C 20.130922 33.616703 20.441188 33.762875 20.742188 33.671875 L 21.556641 33.423828 C 21.857641 33.331828 22.031312 33.036625 21.945312 32.765625 L 21.291016 30.693359 C 21.263016 30.602359 21.299047 30.580531 21.373047 30.644531 L 23.652344 32.626953 C 23.726344 32.690953 23.866797 32.715547 23.966797 32.685547 L 25.142578 32.326172 C 25.443578 32.234172 25.619203 31.940922 25.533203 31.669922 L 24.146484 27.265625 C 24.082734 27.062375 23.890875 26.928734 23.671875 26.914062 z M 26.792969 27.121094 C 26.833656 27.113094 26.881547 27.114203 26.935547 27.126953 L 29.839844 27.816406 C 30.055844 27.868406 30.109938 28.041125 29.960938 28.203125 L 27.96875 30.369141 C 27.81875 30.531141 27.644125 30.493203 27.578125 30.283203 L 26.664062 27.412109 C 26.614563 27.255359 26.670906 27.145094 26.792969 27.121094 z"/></svg>