<?xml version="1.0" encoding="UTF-8"?><svg xmlns="http://www.w3.org/2000/svg" xmlns:xlink="http://www.w3.org/1999/xlink" contentScriptType="text/ecmascript" width="375" zoomAndPan="magnify" contentStyleType="text/css" viewBox="0 0 375 374.999991" height="374.999991" preserveAspectRatio="xMidYMid meet" version="1.0"><defs><clipPath id="clip-0"><path d="M 1 253 L 313 253 L 313 369.09375 L 1 369.09375 Z M 1 253 " clip-rule="nonzero"/></clipPath><clipPath id="clip-1"><path d="M 67 6.09375 L 261 6.09375 L 261 247 L 67 247 Z M 67 6.09375 " clip-rule="nonzero"/></clipPath></defs><path fill="rgb(50.19989%, 50.19989%, 50.19989%)" d="M 202.09375 89.613281 C 298.652344 94.054688 373.765625 127.09375 373.765625 167.128906 C 373.765625 189.058594 351.210938 208.910156 314.929688 223.089844 C 325.15625 213.589844 330.824219 203.121094 330.824219 192.132812 C 330.824219 160.296875 283.324219 132.882812 215.320312 120.761719 Z M 103.050781 95.472656 L 94.902344 115.9375 C 59.1875 119.128906 27.183594 126.265625 1.835938 136.167969 C 21.441406 117.972656 57.792969 103.34375 103.050781 95.472656 " fill-opacity="1" fill-rule="evenodd"/><path fill="rgb(50.19989%, 50.19989%, 50.19989%)" d="M 373.765625 229 C 343.957031 256.671875 275.433594 276.050781 195.738281 276.050781 C 88.738281 276.050781 1.835938 241.097656 1.835938 198.039062 C 1.835938 176.085938 24.394531 156.257812 60.652344 142.078125 C 50.449219 151.578125 44.78125 162.046875 44.78125 173.035156 C 44.78125 216.09375 131.65625 251.070312 238.679688 251.070312 C 291.167969 251.070312 338.832031 242.65625 373.765625 229 " fill-opacity="1" fill-rule="evenodd"/><g clip-path="url(#clip-0)"><path fill="rgb(50.19989%, 50.19989%, 50.19989%)" d="M 312.898438 369.09375 L 262.796875 369.09375 C 262.796875 369.09375 245.957031 329.035156 225.429688 279.902344 C 232.515625 279.453125 239.601562 278.839844 246.640625 278.082031 C 255.355469 277.136719 264.050781 275.957031 272.695312 274.492188 Z M 48.558594 369.09375 L 1.835938 369.09375 L 47.875 253.695312 C 60.984375 259.792969 74.730469 264.425781 88.738281 268.039062 C 67.265625 322.371094 48.605469 368.976562 48.558594 369.09375 " fill-opacity="1" fill-rule="evenodd"/></g><g clip-path="url(#clip-1)"><path fill="rgb(50.19989%, 50.19989%, 50.19989%)" d="M 260.554688 245.964844 C 244.089844 246.722656 227.554688 246.558594 211.09375 245.589844 C 183.550781 179.558594 154.78125 110.125 152.160156 101.878906 C 150.246094 110.574219 128.726562 166.394531 105.792969 224.816406 C 104.042969 224.128906 102.296875 223.421875 100.570312 222.6875 C 88.878906 217.773438 77.492188 211.863281 67.738281 203.898438 L 152.160156 6.09375 L 260.554688 245.964844 " fill-opacity="1" fill-rule="evenodd"/></g></svg>